<svg width="64" height="64" viewBox="0 0 64 64" fill="none" xmlns="http://www.w3.org/2000/svg">
<path fill-rule="evenodd" clip-rule="evenodd" d="M22.0298 1.61902C11.1668 5.50002 4.24481 12.8 1.06881 23.723C-1.89919 33.932 1.46781 46.49 9.26281 54.285C21.4218 66.443 42.0378 66.443 54.1968 54.285C63.3148 45.167 65.9998 30.267 60.6038 18.732C53.7538 4.08902 36.5178 -3.55798 22.0298 1.61902ZM44.6478 7.52802C54.3378 12.484 60.7308 24.308 59.3498 34.72C58.4478 41.526 53.9028 49.703 48.9028 53.516C33.0308 65.622 10.6958 58.267 5.12381 39.1C3.08981 32.106 3.78381 26.152 7.47481 18.916C14.4198 5.30002 30.5998 0.343017 44.6478 7.52802ZM18.1688 18.917C17.7908 19.529 20.0818 22.637 23.3278 25.917L29.1668 31.818L23.2388 37.809C18.5778 42.519 17.5718 44.06 18.5298 45.018C19.4878 45.976 21.0288 44.97 25.7388 40.309L31.7298 34.381L37.7208 40.309C42.4308 44.97 43.9718 45.976 44.9298 45.018C45.8878 44.06 44.8818 42.519 40.2208 37.809L34.2928 31.818L40.2208 25.827C44.8818 21.117 45.8878 19.576 44.9298 18.618C43.9718 17.66 42.4308 18.666 37.7208 23.327L31.7298 29.255L25.9508 23.537C19.8638 17.513 19.2588 17.154 18.1688 18.917Z" fill="#546C99"/>
</svg>
