<svg width="30" height="25" viewBox="0 0 30 25" fill="none" xmlns="http://www.w3.org/2000/svg">
<path d="M16.5 6C16.5 6 16.5 6.2 16.5 7C16.5 8 16.5 16 16.5 8.5" stroke="#6C8CC7"/>
<path d="M22.5 22.5C23.0933 22.5 23.6734 22.3241 24.1667 21.9944C24.6601 21.6648 25.0446 21.1962 25.2716 20.6481C25.4987 20.0999 25.5581 19.4967 25.4424 18.9147C25.3266 18.3328 25.0409 17.7982 24.6213 17.3787C24.2018 16.9591 23.6672 16.6734 23.0853 16.5576C22.5033 16.4419 21.9001 16.5013 21.352 16.7284C20.8038 16.9554 20.3352 17.3399 20.0056 17.8333C19.6759 18.3266 19.5 18.9067 19.5 19.5C19.5 20.2956 19.8161 21.0587 20.3787 21.6213C20.9413 22.1839 21.7043 22.5 22.5 22.5ZM23.6111 21.1629C23.2822 21.3827 22.8956 21.5 22.5 21.5C21.9696 21.5 21.4609 21.2893 21.0858 20.9142C20.7107 20.5391 20.5 20.0304 20.5 19.5C20.5 19.1044 20.6173 18.7178 20.8371 18.3889C21.0568 18.06 21.3692 17.8036 21.7346 17.6522C22.1001 17.5009 22.5022 17.4613 22.8902 17.5384C23.2781 17.6156 23.6345 17.8061 23.9142 18.0858C24.1939 18.3655 24.3844 18.7219 24.4616 19.1098C24.5387 19.4978 24.4991 19.8999 24.3478 20.2654C24.1964 20.6308 23.94 20.9432 23.6111 21.1629ZM7.5 22.5C8.09334 22.5 8.67336 22.3241 9.16671 21.9944C9.66006 21.6648 10.0446 21.1962 10.2716 20.6481C10.4987 20.0999 10.5581 19.4967 10.4424 18.9147C10.3266 18.3328 10.0409 17.7982 9.62132 17.3787C9.20176 16.9591 8.66721 16.6734 8.08527 16.5576C7.50333 16.4419 6.90013 16.5013 6.35195 16.7284C5.80377 16.9554 5.33524 17.3399 5.00559 17.8333C4.67595 18.3266 4.5 18.9067 4.5 19.5C4.5 20.2957 4.81607 21.0587 5.37868 21.6213C5.94129 22.1839 6.70435 22.5 7.5 22.5ZM8.61114 21.1629C8.28224 21.3827 7.89556 21.5 7.5 21.5C6.96957 21.5 6.46086 21.2893 6.08578 20.9142C5.71071 20.5391 5.5 20.0304 5.5 19.5C5.5 19.1044 5.6173 18.7178 5.83706 18.3889C6.05682 18.06 6.36918 17.8036 6.73463 17.6522C7.10009 17.5009 7.50222 17.4613 7.89018 17.5384C8.27814 17.6156 8.63451 17.8061 8.91422 18.0858C9.19392 18.3655 9.3844 18.7219 9.46157 19.1098C9.53874 19.4978 9.49914 19.8999 9.34776 20.2654C9.19638 20.6308 8.94004 20.9432 8.61114 21.1629ZM26.95 19.5H26.5003L26.4528 19.9472C26.3492 20.9233 25.8881 21.8266 25.1583 22.483C24.4285 23.1394 23.4816 23.5026 22.5 23.5026C21.5184 23.5026 20.5715 23.1394 19.8417 22.483C19.1119 21.8266 18.6508 20.9233 18.5472 19.9472L18.4997 19.5H18.05H11.95H11.5003L11.4528 19.9472C11.3492 20.9233 10.8881 21.8266 10.1583 22.483C9.42847 23.1394 8.48159 23.5026 7.5 23.5026C6.51841 23.5026 5.57153 23.1394 4.84173 22.483C4.11193 21.8266 3.65082 20.9233 3.54721 19.9472L3.49973 19.5H3.05H3C2.33696 19.5 1.70107 19.2366 1.23223 18.7678C0.763392 18.2989 0.5 17.663 0.5 17V3C0.5 2.33696 0.763392 1.70107 1.23223 1.23223C1.70107 0.763392 2.33696 0.5 3 0.5H14C14.663 0.5 15.2989 0.763392 15.7678 1.23223C16.2366 1.70107 16.5 2.33696 16.5 3V5V5.5H17H22.9993C23.2154 5.50069 23.4287 5.54847 23.6245 5.64002C23.8204 5.73166 23.994 5.86495 24.1331 6.03059L24.5053 6.47366L24.5105 6.46777L28.9699 11.8539L28.9918 11.8804L29.0172 11.9037C29.1693 12.043 29.2907 12.2124 29.3739 12.4012C29.4569 12.5899 29.4999 12.7938 29.5 13C29.5 13.0001 29.5 13.0001 29.5 13.0002V17C29.5 17.663 29.2366 18.2989 28.7678 18.7678C28.2989 19.2366 27.663 19.5 27 19.5H26.95Z" stroke="#6C8CC7"/>
</svg>
