<svg width="1348" height="424" viewBox="0 0 1348 424" fill="none" xmlns="http://www.w3.org/2000/svg">
<path fill-rule="evenodd" clip-rule="evenodd" d="M177.42 1.85208C171.376 5.60308 170.459 14.2641 175.595 19.0901L178.16 21.5001L241.83 22.0001L305.5 22.5001L298 26.9131C275.15 40.3561 250.494 61.0291 238.815 76.5371L235.5 80.9381L214.718 80.9691C191.586 81.0031 188.252 81.6791 185.566 86.8721C182.41 92.9761 184.673 100.13 190.534 102.579C192.864 103.552 197.91 104 206.551 104C213.49 104 219.013 104.338 218.826 104.75C218.639 105.162 217.02 108.313 215.228 111.75L211.971 118H173.953C133.166 118 131.051 118.234 127.631 123.117C125.563 126.069 125.525 132.877 127.561 135.783C131.094 140.828 132.45 141 168.567 141H202.233L201.579 143.25C198.35 154.352 194.782 169.163 193.448 177C191.501 188.446 190.411 224.706 191.727 234.25L192.658 241H158.297C119.361 241 118.068 241.2 115.383 247.626C113.305 252.599 114.29 257.225 118.111 260.44L121.153 263H159.038H196.923L198.035 267.25C202.418 283.994 214.911 312.754 217.218 311.412C217.923 311.002 224.125 306.298 231 300.96C286.23 258.072 350.436 218.703 412 189.976C468.366 163.675 518.257 145.452 579 128.977C587.525 126.665 594.652 124.635 594.838 124.466C595.604 123.768 585.194 105.058 577.987 94.1791C552.4 55.5561 512.809 24.9661 470.5 11.1301C458.593 7.23608 444.876 4.13708 429.5 1.86708C423.81 1.02608 386.702 0.578083 301 0.313083C183.756 -0.048917 180.417 -0.00791705 177.42 1.85208ZM4.775 43.5591C1.233 45.4811 0 47.9191 0 53.0001C0 58.1701 1.257 60.5641 4.98 62.4901C7.535 63.8111 22.095 64.0001 121.2 63.9961C231.653 63.9931 234.58 63.9441 237.689 62.0481C241.621 59.6501 243.286 54.6201 241.858 49.4481C241.221 47.1421 239.759 45.2141 237.689 43.9521C234.579 42.0561 231.689 42.0081 121 42.0441C22.78 42.0751 7.133 42.2791 4.775 43.5591ZM61.321 82.6131C57.286 84.6031 54.595 90.0281 55.431 94.4851C56.205 98.6121 60.076 102.565 64.139 103.378C65.85 103.72 86.558 104 110.157 104C157.298 104 158.466 103.866 161.434 98.1281C164.59 92.0241 162.327 84.8701 156.466 82.4211C151.165 80.2071 65.852 80.3791 61.321 82.6131ZM774 85.1611C759.483 87.2041 747.613 96.1101 740.768 110.093C737.309 117.159 716.423 173.112 714.113 181.5C711.011 192.764 713.654 201.319 721.5 205.413C725.33 207.411 726.965 207.5 760 207.5C796.682 207.5 803.48 206.994 804.278 204.204C804.547 203.267 806.384 198.087 808.36 192.693L811.955 182.886L781.197 183.591C752.878 184.241 750.303 184.161 748.72 182.577C747.774 181.631 747 180.201 747 179.4C747 177.345 768.829 117.979 770.583 115.264C774.203 109.66 774.93 109.54 808.377 109L839.347 108.5L843.633 97.0001C845.99 90.6751 847.937 85.1621 847.959 84.7501C848.017 83.6881 781.855 84.0561 774 85.1611ZM861.204 86.7501C860.659 88.2631 850.656 115.375 838.976 147C827.296 178.625 817.521 205.287 817.253 206.25C816.795 207.899 819.576 208 865.65 208H914.533L919.129 195.5L923.725 183H890.755C864.811 183 857.88 182.734 858.228 181.75C858.471 181.063 860.61 175.22 862.981 168.766L867.292 157.033L893.319 156.766L919.346 156.5L923.587 145L927.828 133.5L902.078 133L876.328 132.5L880.542 121L884.755 109.5L917.776 109.237C948.046 108.995 950.855 108.829 951.497 107.237C951.883 106.281 953.69 101.45 955.513 96.5001C957.335 91.5501 959.139 86.7131 959.52 85.7501C960.175 84.0981 957.478 84.0001 911.205 84.0001H862.196L861.204 86.7501ZM972.909 86.7261C966.611 103.213 929 206.26 929 207.028C929 207.693 934.494 207.954 944.706 207.775L960.413 207.5L968.521 185.5C972.981 173.4 978.611 158.1 981.032 151.5L985.434 139.5L989.66 161C991.983 172.825 993.911 182.613 993.942 182.75C993.974 182.887 999.572 183 1006.38 183H1018.77L1038.13 162.085C1048.79 150.582 1057.65 141.318 1057.83 141.498C1058.07 141.736 1040.17 191.29 1034.26 206.75C1033.89 207.718 1037.4 208 1049.8 208H1065.8L1066.79 205.25C1067.33 203.738 1077.5 176.104 1089.39 143.843C1101.27 111.582 1111 84.9191 1111 84.5931C1111 84.2671 1103.46 84.0241 1094.25 84.0531L1077.5 84.1061L1048.03 116.655L1018.56 149.203L1012.99 116.852L1007.42 84.5001L990.695 84.2261L973.969 83.9521L972.909 86.7261ZM1131.21 86.7501C1130.67 88.2631 1120.5 115.923 1108.61 148.218C1096.73 180.514 1087 207.217 1087 207.559C1087 207.902 1106.24 208.007 1129.75 207.794C1170.96 207.42 1172.73 207.325 1178.83 205.166C1195.38 199.309 1203.25 189.461 1212.53 163C1218.91 144.811 1217.75 135.097 1208.59 129.844C1204.61 127.564 1203.75 127.492 1176.75 127.192C1161.49 127.023 1149 126.532 1149 126.101C1149 125.67 1152.38 116.174 1156.5 105C1160.62 93.8261 1164 84.5291 1164 84.3411C1164 84.1541 1156.84 84.0001 1148.1 84.0001H1132.2L1131.21 86.7501ZM428.155 126.179C444.043 133.977 456.695 140.697 456.271 141.112C455.847 141.527 439.525 149.906 420 159.733C358.706 190.579 328.519 208.631 266.455 251.551C233.909 274.058 231.999 275.332 231.526 274.859C230.97 274.304 255.719 253.358 280.883 233.087C335.314 189.24 379.763 159.037 411.255 144.5C416.021 142.3 419.938 140.203 419.96 139.84C420.014 138.952 400.607 127 399.11 127C395.389 127 308.09 185.936 286.715 202.879C277.132 210.475 276.135 211.001 279.375 206.753C283.865 200.866 312.436 175.032 329.028 161.856C348.848 146.116 395.921 112 397.818 112C398.615 112 412.267 118.381 428.155 126.179ZM74.325 119.459C67.065 122.617 65.309 131.768 70.891 137.355C73.987 140.453 74.2 140.505 85.231 140.844C91.669 141.042 98.014 140.713 100.16 140.07C105.182 138.565 108 134.798 108 129.588C108 124.566 105.857 121.256 101.401 119.394C96.946 117.533 78.653 117.577 74.325 119.459ZM1179 152.288C1182.56 154.079 1182.57 157.38 1179.05 167.015C1173.55 182.106 1171.73 183 1146.53 183C1136.34 183 1128 182.853 1128 182.673C1128 182.149 1136.66 158.761 1138.35 154.698L1139.9 151L1158.2 151.015C1170.89 151.025 1177.27 151.415 1179 152.288ZM99.42 168.885C93.096 172.742 92.431 181.66 98.111 186.44L101.153 189H134.53C156.398 189 168.727 188.626 170.288 187.915C175.391 185.59 177.368 178.546 174.483 172.967C171.493 167.184 170.264 167 134.8 167.004C104.963 167.007 102.265 167.151 99.42 168.885ZM55.388 207.98C48.707 210.68 46.807 220.441 51.901 225.894L54.802 229H101.501H148.2L151.6 225.6C155.43 221.77 156.013 217.859 153.483 212.967C150.393 206.991 150.418 206.994 101.8 207.063C77.435 207.098 56.55 207.511 55.388 207.98ZM867.892 242.449C856.102 245.701 846.605 253.877 840.471 266.057C836.955 273.039 815.664 329.944 813.366 338.5C812.628 341.25 812.02 346.2 812.016 349.5C812.005 356.96 814.28 361.043 820.211 364.21C824.383 366.437 825.375 366.509 856.5 366.823C878.079 367.041 890.454 366.765 894.5 365.978C908.09 363.334 918.421 355.401 925.169 342.428C928.855 335.342 950.885 276.32 953.04 267.757C953.697 265.148 954.044 260.028 953.811 256.379C953.423 250.278 953.1 249.479 949.789 246.445C947.809 244.631 944.459 242.666 942.344 242.079C936.64 240.495 873.847 240.807 867.892 242.449ZM1129.89 242.425C1118.41 245.652 1109.36 253.215 1103.24 264.706C1100.21 270.389 1078.86 326.999 1075.58 338.051C1074.71 340.972 1074 346.094 1074 349.432C1074.01 356.966 1076.27 361.037 1082.21 364.21C1086.39 366.439 1087.36 366.508 1118.69 366.812C1138.41 367.004 1153.09 366.716 1156.58 366.07C1169.88 363.611 1180.42 355.485 1187.22 342.457C1192.19 332.918 1214.73 271.432 1215.89 264.229C1216.89 257.98 1216.15 251.776 1213.98 248.325C1213.23 247.129 1210.79 245.104 1208.56 243.825C1204.54 241.524 1204.14 241.498 1169.5 241.315C1143.41 241.178 1133.33 241.46 1129.89 242.425ZM1319.5 243.366C1312 247.016 1306.88 251.796 1288.5 272.304L1271.75 291H1264.37C1260.32 291 1257 290.706 1257 290.346C1257 289.987 1260.82 279.269 1265.5 266.529C1270.18 253.788 1274 243.057 1274 242.682C1274 242.307 1267 242 1258.45 242H1242.9L1241.34 245.733C1240.48 247.786 1230.35 275.104 1218.82 306.438C1207.3 337.773 1197.64 363.78 1197.36 364.23C1197.08 364.681 1204.18 364.926 1213.13 364.775L1229.41 364.5L1238.46 340L1247.51 315.5L1255.22 315.208C1262.56 314.931 1262.97 315.029 1263.45 317.208C1263.74 318.469 1265.56 328.725 1267.5 340C1269.44 351.275 1271.26 361.512 1271.54 362.75C1272.03 364.972 1272.24 365 1288.52 365C1301.04 365 1305 364.7 1305 363.75C1304.99 362.573 1295.46 308.467 1294.6 304.789C1294.14 302.779 1322.45 270.917 1327.37 267.918C1329.23 266.779 1332.34 266.006 1335.05 266.004L1339.6 266L1343.83 254.369C1346.16 247.972 1347.79 242.46 1347.45 242.119C1347.12 241.779 1341.81 241.372 1335.67 241.216C1325.55 240.959 1324.03 241.16 1319.5 243.366ZM719.485 274.25C711.936 291.988 702.846 313.362 699.285 321.749C691.794 339.395 690.196 341.141 680.926 341.812L675.221 342.224L670.986 353.654C668.656 359.94 667.069 365.402 667.458 365.792C667.847 366.181 674.091 366.5 681.333 366.5C693.637 366.5 694.86 366.322 700 363.786C707.617 360.027 712.65 355.609 717.024 348.841C719.076 345.667 728.087 325.955 737.05 305.035L753.347 267H771.629H789.911L788.567 270.75C786.586 276.274 755.289 361.2 754.478 363.25C753.836 364.873 754.951 365 769.786 365C784.097 365 785.858 364.815 786.47 363.25C786.846 362.288 796.764 335.4 808.511 303.5C820.257 271.6 830.17 244.713 830.541 243.75C831.176 242.098 828.47 242 782.212 242H733.211L719.485 274.25ZM978.113 280.25C969.113 301.288 960.124 320.975 958.136 324C956.148 327.025 952.019 332.087 948.962 335.25C943.425 340.976 943.377 341 937.451 341.017L931.5 341.033L923.23 363.767C918.682 376.27 914.969 386.837 914.98 387.25C914.991 387.663 921.661 388 929.803 388H944.605L949.586 376.75L954.566 365.5L987.525 365.236C1005.65 365.091 1021.01 365.174 1021.65 365.42C1022.48 365.737 1021.97 368.747 1019.93 375.684C1018.34 381.083 1017.03 386.063 1017.02 386.75C1017 387.695 1020.62 388 1031.82 388H1046.64L1055.19 364.75L1063.74 341.5L1057.37 341.204C1053.87 341.042 1051 340.761 1051 340.58C1051 340.297 1084.65 248.601 1086.53 243.75C1087.18 242.099 1084.6 242 1040.84 242H994.475L978.113 280.25ZM916.407 265.965C917.802 266.495 919.21 267.99 919.536 269.287C920.156 271.76 899.514 329.981 895.923 335.886C892.31 341.827 889.555 342.5 868.855 342.5C851.686 342.5 850.037 342.344 848.025 340.523C846.382 339.036 845.983 337.834 846.415 335.674C847.71 329.202 869.334 272.322 871.336 270.123C875.378 265.682 878.375 265.081 896.685 265.039C906.137 265.018 915.012 265.434 916.407 265.965ZM1179 266.288C1180.47 267.028 1181.62 268.566 1181.79 270.023C1182.22 273.827 1159.39 334.948 1156.34 338.156C1152.69 341.983 1147.04 343.013 1130.31 342.9C1113.36 342.786 1111.06 342.356 1109.16 338.958C1107.89 336.689 1108.67 334.079 1119.39 305C1125.78 287.675 1131.82 272.375 1132.82 271C1136.64 265.758 1139.95 265.002 1159 265.016C1171.05 265.025 1177.28 265.422 1179 266.288ZM1042.92 275.25C1041.25 279.788 1035.12 296.438 1029.3 312.25L1018.7 341H996.768H974.832L978.166 336.895C989.364 323.105 992.773 316.745 1006.11 284.769L1013.5 267.038L1029.72 267.019L1045.95 267L1042.92 275.25Z" fill="black"/>
<path fill-rule="evenodd" clip-rule="evenodd" d="M674.02 128.803C603.064 141.618 541.528 158.695 481.52 182.222C433.097 201.206 370.033 232.362 329.02 257.563C308.271 270.312 269.2 296.499 253.413 308.238C236.246 321.003 194.827 355.173 196.025 355.582C196.551 355.762 214.202 349.068 235.25 340.707C288.074 319.724 329.571 305.942 388.52 289.805C414.833 282.601 479.599 267.447 481.441 268.063C482.034 268.261 479.37 269.464 475.52 270.735C463.909 274.568 430.772 288.045 409.52 297.577C364.73 317.667 268.775 364.585 263.824 368.816L261.52 370.786L265.87 374.52C275.794 383.04 294.433 395.22 308.057 402.086C339.078 417.722 372.79 424.974 407.037 423.378C463.491 420.749 515.778 397.422 554.621 357.537C582.498 328.913 600.062 296.872 608.5 259.249C610.539 250.159 611.807 246.654 614.064 243.866C615.673 241.88 620.967 234.63 625.831 227.755C630.694 220.88 648.73 195.53 665.91 171.421C683.091 147.312 697.392 126.95 697.691 126.171C698.391 124.346 699.187 124.258 674.02 128.803Z" fill="#6C8CC7"/>
</svg>
