<svg width="28" height="26" viewBox="0 0 28 26" fill="none" xmlns="http://www.w3.org/2000/svg">
<path d="M20.5 17.5H19.5C18.9696 17.5 18.4609 17.2893 18.0858 16.9142C17.7107 16.5391 17.5 16.0304 17.5 15.5C17.5 14.9696 17.7107 14.4609 18.0858 14.0858C18.4609 13.7107 18.9696 13.5 19.5 13.5H20.4986C20.2377 13.5002 19.978 13.5514 19.7346 13.6522C19.3692 13.8036 19.0568 14.06 18.8371 14.3889C18.6173 14.7178 18.5 15.1044 18.5 15.5C18.5 16.0304 18.7107 16.5391 19.0858 16.9142C19.4609 17.2893 19.9696 17.5 20.5 17.5ZM20.5 17.5H25.5V13.5H20.5014C20.6313 13.5001 20.7615 13.5128 20.8902 13.5384C21.2781 13.6156 21.6345 13.8061 21.9142 14.0858C22.1939 14.3655 22.3844 14.7219 22.4616 15.1098C22.5387 15.4978 22.4991 15.8999 22.3478 16.2654C22.1964 16.6308 21.94 16.9432 21.6111 17.1629C21.2822 17.3827 20.8956 17.5 20.5 17.5ZM24 5.5H24.5V5V3.5C24.5 2.96957 24.2893 2.46086 23.9142 2.08579C23.5391 1.71071 23.0304 1.5 22.5 1.5H3.5C2.96957 1.5 2.46086 1.71071 2.08579 2.08579C1.71071 2.46086 1.5 2.96957 1.5 3.5C1.5 4.03043 1.71071 4.53914 2.08579 4.91421C2.46086 5.28929 2.96957 5.5 3.5 5.5H24ZM26.5 13V12.5H26H19.5C18.7043 12.5 17.9413 12.8161 17.3787 13.3787C16.8161 13.9413 16.5 14.7044 16.5 15.5C16.5 16.2956 16.8161 17.0587 17.3787 17.6213C17.9413 18.1839 18.7043 18.5 19.5 18.5H26H26.5V18V13ZM26.5 20V19.5H26H19.5C18.4391 19.5 17.4217 19.0786 16.6716 18.3284C15.9214 17.5783 15.5 16.5609 15.5 15.5C15.5 14.4391 15.9214 13.4217 16.6716 12.6716C17.4217 11.9214 18.4391 11.5 19.5 11.5H26H26.5V11V8C26.5 7.60218 26.342 7.22064 26.0607 6.93934C25.7794 6.65804 25.3978 6.5 25 6.5H3C2.60217 6.5 2.22064 6.65804 1.93934 6.93934C1.65803 7.22064 1.5 7.60218 1.5 8V23C1.5 23.3978 1.65803 23.7794 1.93934 24.0607C2.22064 24.342 2.60218 24.5 3 24.5H25C25.3978 24.5 25.7794 24.342 26.0607 24.0607C26.342 23.7794 26.5 23.3978 26.5 23V20ZM23.2071 2.79289C23.3946 2.98043 23.5 3.23478 23.5 3.5V4.5H3.5C3.23478 4.5 2.98043 4.39464 2.79289 4.20711C2.60536 4.01957 2.5 3.76522 2.5 3.5C2.5 3.23478 2.60536 2.98043 2.79289 2.79289C2.98043 2.60536 3.23478 2.5 3.5 2.5H22.5C22.7652 2.5 23.0196 2.60536 23.2071 2.79289ZM19.5 20.5H25.5V23C25.5 23.1326 25.4473 23.2598 25.3536 23.3536C25.2598 23.4473 25.1326 23.5 25 23.5H3C2.86739 23.5 2.74021 23.4473 2.64645 23.3536C2.55268 23.2598 2.5 23.1326 2.5 23V8C2.5 7.86739 2.55268 7.74021 2.64645 7.64645C2.74021 7.55268 2.86739 7.5 3 7.5H25C25.1326 7.5 25.2598 7.55268 25.3536 7.64645C25.4473 7.74021 25.5 7.86739 25.5 8V10.5H19.5C18.1739 10.5 16.9021 11.0268 15.9645 11.9645C15.0268 12.9021 14.5 14.1739 14.5 15.5C14.5 16.8261 15.0268 18.0979 15.9645 19.0355C16.9021 19.9732 18.1739 20.5 19.5 20.5ZM6 20.5C5.86739 20.5 5.74021 20.4473 5.64645 20.3536C5.55268 20.2598 5.5 20.1326 5.5 20V11C5.5 10.8674 5.55268 10.7402 5.64645 10.6464C5.74021 10.5527 5.86739 10.5 6 10.5C6.13261 10.5 6.25979 10.5527 6.35355 10.6464C6.44732 10.7402 6.5 10.8674 6.5 11V20C6.5 20.1326 6.44732 20.2598 6.35355 20.3536C6.25979 20.4473 6.13261 20.5 6 20.5ZM4.93934 21.0607C5.22064 21.342 5.60218 21.5 6 21.5C6.39782 21.5 6.77936 21.342 7.06066 21.0607C7.34197 20.7794 7.5 20.3978 7.5 20V11C7.5 10.6022 7.34197 10.2206 7.06066 9.93934C6.77936 9.65803 6.39782 9.5 6 9.5C5.60218 9.5 5.22064 9.65803 4.93934 9.93934C4.65803 10.2206 4.5 10.6022 4.5 11V20C4.5 20.3978 4.65803 20.7794 4.93934 21.0607ZM19.5 15.5C19.5 15.3022 19.5586 15.1089 19.6685 14.9444C19.7784 14.78 19.9346 14.6518 20.1173 14.5761C20.3 14.5004 20.5011 14.4806 20.6951 14.5192C20.8891 14.5578 21.0673 14.653 21.2071 14.7929C21.347 14.9327 21.4422 15.1109 21.4808 15.3049C21.5194 15.4989 21.4996 15.7 21.4239 15.8827C21.3482 16.0654 21.22 16.2216 21.0556 16.3315C20.8911 16.4414 20.6978 16.5 20.5 16.5C20.2348 16.5 19.9804 16.3946 19.7929 16.2071C19.6054 16.0196 19.5 15.7652 19.5 15.5ZM25.5 5.184V5.53835L25.8343 5.65576C26.3204 5.82645 26.7416 6.14364 27.0399 6.56366C27.338 6.98344 27.4988 7.48528 27.5 8.00015C27.5 8.00044 27.5 8.00072 27.5 8.00101L27.5 23C27.5 23.663 27.2366 24.2989 26.7678 24.7678C26.2989 25.2366 25.663 25.5 25 25.5H3C2.33696 25.5 1.70108 25.2366 1.23223 24.7678C0.763393 24.2989 0.5 23.663 0.5 23V3.5C0.5 2.70435 0.816071 1.94129 1.37868 1.37868C1.94129 0.81607 2.70435 0.5 3.5 0.5H22.5C23.2956 0.5 24.0587 0.816071 24.6213 1.37868C25.1839 1.94129 25.5 2.70435 25.5 3.5V5.184Z" stroke="#6C8CC7"/>
</svg>
